#!OML:ASF F:\VICON\USERDATA\INSTALL\rory3\rory3.ASF
:FULLY-SPECIFIED
:DEGREES
55
root 0.7209489348197782 17.77746794476221 26.349545934348903 -1.586527637280422 0.39883366977691637 6.075852079496958
lfemur 0.11314170638667953 -3.700943618644601 -23.918182799208545
ltibia 43.47938134203585
lfoot 2.2234118815833837 -0.9060258704155972
ltoes 0.6508873813451639
rfemur -21.87990769443109 1.208052040449005 20.22493105256945
rtibia 50.48816719986744
rfoot -11.12829550345197 -4.907824193067288
rtoes 5.423146073749204
lowerback 10.615602856106964 -0.27614486392684284 -2.812078019611028
upperback 0.25861489993157394 -0.7936517958785538 0.8330624174392617
thorax -5.88977919449723 -0.2872964574540574 2.608829219255285
lowerneck -16.235830337057838 -2.912956659590551 -1.975750602226687
upperneck 20.595951898200752 -3.7041264543515036 1.572732876060494
head 9.206635438762053 -1.7778542101102939 0.531924434612578
lclavicle 1.4826508722259833e-16 2.379709092856821e-16
lhumerus -32.2758113234042 5.274578261626316 81.36411846608344
lradius 22.62276302134365
lwrist 6.380874054461682
lhand -29.03931238631348 20.787123401810373
lfingers 7.12502
lthumb -2.454038623386505 51.241814821565576
rclavicle 1.4401194801714718e-16 2.3472345468053206e-16
rhumerus -28.709975900574186 -19.52212149435769 -81.04373846384615
rradius 22.09026378209365
rwrist 3.489588410116151
rhand -17.741484268237453 21.104364501861397
rfingers 7.12502
rthumb 8.535315357794305 -8.506497662740038
56
root 0.7034353796477761 17.734816195325582 27.01807588697255 -1.6160834355723277 0.07736520851719009 5.788351317135999
lfemur 0.6961307061803748 -3.983197048306395 -23.529502903771007
ltibia 44.787891378551166
lfoot 0.8804486541023566 0.6540423081432922
ltoes -0.4683858438034476
rfemur -22.58493195818179 1.220520458944137 20.771526165084325
rtibia 48.235662222104125
rfoot -11.619398847156797 -6.0604195177799145
rtoes 4.548075699531709
lowerback 10.913415423381057 -0.5295481032691765 -2.737276436310606
upperback 0.2974121210746403 -1.0181923185497515 1.0044440099560932
thorax -6.009407558612297 -0.4397690201048021 2.802407402096709
lowerneck -16.16360524020378 -2.9151991236235157 -1.968977429107731
upperneck 20.565648476715943 -3.7166147555518454 1.5891316991438804
head 9.152958203896576 -1.790277116673836 0.5471596793385852
lclavicle 1.506431572199319e-16 2.397997651736675e-16
lhumerus -32.65031369375873 5.4168214454699655 81.33898952270174
lradius 21.84453668012169
lwrist 7.7962143950539025
lhand -28.878484244048877 19.597266319609854
lfingers 7.12502
lthumb -2.116908076448791 49.7721304765354
rclavicle 1.4263106604621227e-16 2.3366170208535195e-16
rhumerus -29.1231233254638 -18.730725698521354 -81.19618993875436
rradius 22.916251950459873
rwrist 2.6092495287662762
rhand -17.55529800672691 21.23886969451992
rfingers 7.12502
rthumb 8.65741645250977 -8.214093985752042
57
root 0.7161361183374813 17.702455619389237 27.707394141924503 -1.1187560158426624 -0.27441664522194076 4.510069562771776
lfemur 1.081865385825429 -4.482042907323115 -22.372140376677788
ltibia 45.61956250987109
lfoot -0.29547623951762336 1.913577246500524
ltoes -0.9970795902500909
rfemur -23.43186429362313 1.2435512413707905 22.094441268221228
rtibia 45.22954361856475
rfoot -11.393311736425403 -7.295374771947932
rtoes 3.0761131267914488
lowerback 10.679251888174878 -0.8731110967827589 -1.8886162217977223
upperback 0.2557656797088389 -1.1966860698791373 1.2958848687282827
thorax -5.804372231888405 -0.5510123796930013 2.7747588352239925
lowerneck -16.168600494520323 -2.9012556986202065 -1.92234242478707
upperneck 20.770897858293736 -3.696961695957999 1.4405343249168139
head 9.245025362717923 -1.7848276390841737 0.460501445642595
lclavicle 1.5016483664973808e-16 2.3943752050254537e-16
lhumerus -32.99985963735619 5.444903727842804 81.0959641795735
lradius 21.012943806501987
lwrist 9.026862967023733
lhand -29.051299718211965 18.68285911463857
lfingers 7.12502
lthumb -2.209382521682882 48.655067691211954
rclavicle 1.4284524961581928e-16 2.338264547723947e-16
rhumerus -29.59547197172795 -18.26021677603852 -81.01683901522095
rradius 23.636052857704108
rwrist 2.1353934109680943
rhand -17.37772024345761 21.524519256678456
rfingers 7.12502
rthumb 8.932665973159517 -7.506946411167609
58
root 0.7248860501935619 17.714735168254727 27.987128059337515 -1.1365122734482556 -0.6768588440377845 3.5964265423464026
lfemur 1.4426975812867973 -4.64641271602843 -21.663793853483774
ltibia 46.37927184287973
lfoot -0.9095482338457304 2.2000744767675604
ltoes -2.2697786366049537
rfemur -23.96438382602696 1.153986807737554 23.115764650717257
rtibia 41.84618722230549
rfoot -9.984187752748452 -7.774216835184223
rtoes -0.14111718358084246
lowerback 10.558154396441847 -1.157468627392035 -1.193814667541695
upperback 0.1488098194010515 -1.4767099337663478 1.5202677290059297
thorax -5.769075660684787 -0.7374932555946043 2.7887958489867724
lowerneck -16.18634669614085 -2.9018268188910836 -1.9281388316534058
upperneck 21.016338491424932 -3.677958484965429 1.3246438745570908
head 9.357828831979862 -1.7755576208719317 0.4024137151950263
lclavicle 1.4852600085120941e-16 2.381777458628244e-16
lhumerus -33.60352463205548 6.0331698609583215 80.70253947198448
lradius 20.248305520025543
lwrist 8.719894189200085
lhand -28.831807872064243 18.86745108016019
lfingers 7.12502
lthumb -2.033351212991845 49.01195893027038
rclavicle 1.4258488233550988e-16 2.3362620107073156e-16
rhumerus -30.098536468019947 -18.220806546849726 -80.55569009457193
rradius 23.999264882592115
rwrist 2.0475885510358802
rhand -17.375095562502885 21.439182503714022
rfingers 7.12502
rthumb 9.014250781841227 -7.536281229424393
59
root 0.7756857684163772 17.7607455577606 28.34402630806555 -0.6197467104523404 -0.15213920996269703 3.4324636360983343
lfemur 1.2809597957317145 -5.149357511603936 -21.481405842844794
ltibia 46.71536786743764
lfoot -1.0076276833395292 1.8885567846024935
ltoes -2.6694343201567334
rfemur -24.02051799743639 0.3107452557678352 23.397373077818994
rtibia 38.19244191239287
rfoot -7.553606853241643 -7.43408561247443
rtoes -1.093428497349581
lowerback 10.180592057478085 -1.677914284076826 -0.5942717569699192
upperback -0.07318476068730181 -1.941526421972735 1.6841043821651482
thorax -5.703951804160045 -0.9677122973391532 2.6098484390585557
lowerneck -16.1453060278243 -2.922366737848597 -2.0152866099504094
upperneck 21.21218567361637 -3.691875328685481 1.255721413091822
head 9.40732895385791 -1.788006770503514 0.36056120085891474
lclavicle 1.5313989817975146e-16 2.4172939160310247e-16
lhumerus -34.211501062011315 6.619882683393661 80.32196671344309
lradius 19.7201961975168
lwrist 7.5123326020426635
lhand -28.28763285707562 19.449115424657744
lfingers 7.12502
lthumb -1.239545745894448 49.6552085152267
rclavicle 1.4255201834210685e-16 2.3360097171952573e-16
rhumerus -30.89231695954498 -18.813925881739614 -79.83813605554937
rradius 24.105720154340155
rwrist 2.1787956337171024
rhand -17.264415033340867 21.36535507108023
rfingers 7.12502
rthumb 9.071960927334791 -7.709725848949767
60
root 0.8312824361376806 17.816919378269027 28.680474327518983 -0.28605776610460865 0.15743559363649728 3.397316331706672
lfemur 0.9282691655225186 -5.386051911598596 -21.54833939473379
ltibia 46.78484738639777
lfoot -0.8896958555084398 1.6224172874785685
ltoes -3.680870687223928
rfemur -23.906394302453286 -0.266588690710337 23.485630611059356
rtibia 34.81780731774699
rfoot -5.068664027149444 -6.968933997007071
rtoes -1.673539407330963
lowerback 9.911887942824938 -2.017123882765065 -0.2977303369136841
upperback -0.22333836911293986 -2.3655270811079285 1.8344146963851928
thorax -5.521569603216931 -1.1717096627291463 2.597733345579381
lowerneck -16.2044353435824 -2.9525075333759325 -2.110059541198563
upperneck 21.428418878779432 -3.740890334941193 1.3467483417591315
head 9.495075474663695 -1.8070194343031265 0.3674008434149669
lclavicle 1.5279624512481653e-16 2.4146613199065836e-16
lhumerus -34.80651408508261 7.070777472746495 79.85906583069519
lradius 19.49612425069238
lwrist 6.562042523783463
lhand -27.556529076292215 20.264177332239758
lfingers 7.12502
lthumb -0.7582266038358176 49.45664327131004
rclavicle 1.4348682630246265e-16 2.343197638679655e-16
rhumerus -31.475135526047747 -19.510146933002474 -78.84905651092862
rradius 23.97054206424036
rwrist 2.6701617455937434
rhand -17.04603017273309 21.338048841375716
rfingers 7.12502
rthumb 9.210843871414438 -7.721566497545037
61
root 0.8555883707847234 17.866747432334016 29.267463785060794 -0.552215643897884 0.7545126463174996 2.978745999078183
lfemur 0.5891339804413835 -5.715046064914123 -21.584118763485016
ltibia 47.25631460630297
lfoot -1.1572110700909972 0.966176004410495
ltoes -4.436994469784864
rfemur -23.39844312389311 -0.8103155725862363 23.796723415872115
rtibia 31.315682689457773
rfoot -2.658630691338085 -7.1280666809063105
rtoes -2.1310038991840172
lowerback 9.957068336042207 -2.360303546111659 0.17193638210074003
upperback -0.2083049314046766 -2.8038583086602653 1.9545988884883378
thorax -5.3779943183770635 -1.4059723182616248 2.6236196691273923
lowerneck -16.215776311377002 -2.9774914848213156 -2.204824225580613
upperneck 21.615914129633232 -3.780591357660785 1.4359653020974577
head 9.58282499514971 -1.8256433120085267 0.3848262629554397
lclavicle 1.5176240213171325e-16 2.406735217312694e-16
lhumerus -35.02748064768228 7.325195852226043 79.40715157244865
lradius 19.45837202062302
lwrist 5.981421519315849
lhand -27.053522418720146 20.506908072375058
lfingers 7.12502
lthumb -0.23163119967718426 49.74750383708424
rclavicle 1.4451650680745442e-16 2.351115561258883e-16
rhumerus -31.956110674856838 -20.074955996187743 -78.05286857764344
rradius 23.774975215088695
rwrist 3.459828102195806
rhand -16.88884335834921 21.373938755867478
rfingers 7.12502
rthumb 9.275031935372034 -7.60249855039023
62
root 0.875917189593548 17.953069988994123 30.369351013602035 -0.9465735858023445 1.4083995995476277 2.575165255180341
lfemur -0.12217766465866298 -6.0107194412073195 -21.83398451648392
ltibia 47.69547149979208
lfoot -0.7268067990630298 -0.384923737203541
ltoes -4.491946059640293
rfemur -22.5774922288079 -1.265903297065205 24.063613304079993
rtibia 27.904863001113483
rfoot -0.7719029571763878 -7.6164549841899625
rtoes -2.368590090225466
lowerback 9.857422079398862 -2.619397470736606 0.6744927247881044
upperback -0.16369448453240443 -3.032268287868696 1.9972005820740704
thorax -5.219296120369204 -1.5093079583334066 2.5599621597432596
lowerneck -16.18259434403666 -3.000226040998618 -2.403006908412581
upperneck 21.683217496255057 -3.816224805876558 1.599445153155607
head 9.622158500362298 -1.8442235359577634 0.44718654382089396
lclavicle 1.5255153553330493e-16 2.4128344176063634e-16
lhumerus -35.25078529740989 7.360386446636623 78.95725197158775
lradius 19.575397038096117
lwrist 4.86451849999996
lhand -26.798280342384125 20.802634206779704
lfingers 7.12502
lthumb -0.013200557456156892 50.22865506155831
rclavicle 1.4456522125003974e-16 2.3514899646408124e-16
rhumerus -32.26212747532189 -21.196187907180644 -77.09687027946767
rradius 23.405574136654636
rwrist 4.176197685977008
rhand -16.7355200563471 21.407057470160417
rfingers 7.12502
rthumb 9.412638879323394 -7.198933221594086
